<?xml version="1.0" encoding="UTF-8"?>
<svg
  xmlns="http://www.w3.org/2000/svg"
  width="24"
  height="24"
  viewBox="0 0 24 24"
  class="lucide lucide-cable"
>
  <style>
    #nuxt-ws-favicon * {
      stroke: #000000;
    }
    @media (prefers-color-scheme: dark) {
      #nuxt-ws-favicon * {
          stroke: #ffffff;
      }
    }
  </style>
  <g id="nuxt-ws-favicon" fill="none" stroke="currentColor" stroke-linecap="round" stroke-linejoin="round" stroke-width="2">
    <path d="M17 21v-2a1 1 0 0 1-1-1v-1a2 2 0 0 1 2-2h2a2 2 0 0 1 2 2v1a1 1 0 0 1-1 1"/>
    <path d="M19 15V6.5a1 1 0 0 0-7 0v11a1 1 0 0 1-7 0V9"/>
    <path d="M21 21v-2h-4"/>
    <path d="M3 5h4V3"/>
    <path d="M7 5a1 1 0 0 1 1 1v1a2 2 0 0 1-2 2H4a2 2 0 0 1-2-2V6a1 1 0 0 1 1-1V3"/>
  </g>
</svg>
